<?xml version="1.0" encoding="utf-8"?>
<!-- Generator: Adobe Illustrator 17.1.0, SVG Export Plug-In . SVG Version: 6.00 Build 0)  -->
<!DOCTYPE svg PUBLIC "-//W3C//DTD SVG 1.1//EN" "http://www.w3.org/Graphics/SVG/1.1/DTD/svg11.dtd">
<svg version="1.1" id="Layer_1" xmlns="http://www.w3.org/2000/svg" xmlns:xlink="http://www.w3.org/1999/xlink" x="0px" y="0px"
	 viewBox="0 0 44 44" enable-background="new 0 0 44 44" xml:space="preserve">
<rect fill="#3C424C" width="44" height="44"/>
<rect x="1" y="1" fill="#424954" width="10" height="10"/>
<rect x="12" y="1" fill="#464C56" width="10" height="10"/>
<rect x="23" y="1" fill="#444A54" width="10" height="10"/>
<rect x="34" y="1" fill="#48505A" width="10" height="10"/>
<rect x="34" y="12" fill="#424954" width="10" height="10"/>
<rect x="1" y="12" fill="#464C56" width="10" height="10"/>
<rect x="12" y="12" fill="#444A54" width="10" height="10"/>
<rect x="23" y="12" fill="#48505A" width="10" height="10"/>
<rect x="23" y="23" fill="#424954" width="10" height="10"/>
<rect x="34" y="23" fill="#464C56" width="10" height="10"/>
<rect x="12" y="23" fill="#444A54" width="10" height="10"/>
<rect x="1" y="23" fill="#48505A" width="10" height="10"/>
<rect x="12" y="34" fill="#424954" width="10" height="10"/>
<rect x="23" y="34" fill="#464C56" width="10" height="10"/>
<rect x="34" y="34" fill="#444A54" width="10" height="10"/>
<rect x="1" y="34" fill="#48505A" width="10" height="10"/>
</svg>
